<?xml version="1.0" encoding="UTF-8" standalone="no"?>
<!-- Created with Inkscape (http://www.inkscape.org/) -->

<svg
  xmlns:dc="http://purl.org/dc/elements/1.1/"
  xmlns:cc="http://creativecommons.org/ns#"
  xmlns:rdf="http://www.w3.org/1999/02/22-rdf-syntax-ns#"
  xmlns="http://www.w3.org/2000/svg"
  xmlns:sodipodi="http://sodipodi.sourceforge.net/DTD/sodipodi-0.dtd"
  xmlns:inkscape="http://www.inkscape.org/namespaces/inkscape"
  width="119.03992mm"
  height="20.138105mm"
  viewBox="0 0 119.03992 20.138105"
  version="1.1"
  id="svg8"
  inkscape:version="0.92.4 (5da689c313, 2019-01-14)"
  sodipodi:docname="imdas-logo.svg">
  <defs
     id="defs2" />
  <sodipodi:namedview
     id="base"
     pagecolor="#ffffff"
     bordercolor="#666666"
     borderopacity="1.0"
     inkscape:pageopacity="0.0"
     inkscape:pageshadow="2"
     inkscape:zoom="0.24748737"
     inkscape:cx="-797.57948"
     inkscape:cy="-27.476902"
     inkscape:document-units="mm"
     inkscape:current-layer="layer1"
     showgrid="false"
     inkscape:window-width="2490"
     inkscape:window-height="1376"
     inkscape:window-x="70"
     inkscape:window-y="27"
     inkscape:window-maximized="1" />
  <metadata
     id="metadata5">
    <rdf:RDF>
      <cc:Work
         rdf:about="">
        <dc:format>image/svg+xml</dc:format>
        <dc:type
           rdf:resource="http://purl.org/dc/dcmitype/StillImage" />
        <dc:title></dc:title>
      </cc:Work>
    </rdf:RDF>
  </metadata>
  <g
     inkscape:label="Layer 1"
     inkscape:groupmode="layer"
     id="layer1"
     transform="translate(5.7042601e-7,-276.8619)">
    <g
       id="g954"
       transform="translate(498.09915,247.64143)">
      <g
         id="g944">
        <g
           aria-label="MDAS"
           style="font-style:normal;font-weight:normal;font-size:28.52201843px;line-height:1.25;font-family:sans-serif;letter-spacing:0px;word-spacing:0px;fill:#000000;fill-opacity:1;stroke:none;stroke-width:0.71305043"
           id="text817">
          <path
             d="m -463.63647,48.843292 v -13.43933 l -7.10265,13.43933 h -4.95793 l -7.10265,-13.43933 v 13.43933 h -5.16683 V 29.707915 h 7.01909 l 7.72936,14.483837 7.72935,-14.483837 h 6.99124 v 19.135377 z"
             style="font-style:normal;font-variant:normal;font-weight:bold;font-stretch:normal;font-family:Syncopate;-inkscape-font-specification:'Syncopate Bold';stroke-width:0.71305043"
             id="path856"
             inkscape:connector-curvature="0" />
          <path
             d="m -429.04238,39.261677 q 0,1.838333 -0.40388,3.27279 -0.40387,1.42053 -1.14199,2.478964 -0.72419,1.058435 -1.75477,1.796553 -1.01666,0.738119 -2.27007,1.183775 -1.25341,0.445657 -2.70179,0.654559 -1.44838,0.194974 -3.02211,0.194974 h -12.14414 V 29.707915 h 12.11629 q 1.57372,0 3.02211,0.208901 1.44838,0.194975 2.70179,0.640631 1.26734,0.445657 2.29792,1.183776 1.03058,0.724191 1.75477,1.796553 0.73812,1.058434 1.14199,2.478964 0.40388,1.42053 0.40388,3.244937 z m -5.20861,0 q 0,-1.37875 -0.3621,-2.395404 -0.34817,-1.016654 -1.14199,-1.671212 -0.7799,-0.668485 -2.04724,-0.988801 -1.26733,-0.334242 -3.09174,-0.334242 h -6.42024 v 10.807171 h 6.42024 q 1.82441,0 3.09174,-0.320316 1.26734,-0.334242 2.04724,-1.002727 0.79382,-0.682411 1.14199,-1.699065 0.3621,-1.016654 0.3621,-2.395404 z"
             style="font-style:normal;font-variant:normal;font-weight:bold;font-stretch:normal;font-family:Syncopate;-inkscape-font-specification:'Syncopate Bold';stroke-width:0.71305043"
             id="path858"
             inkscape:connector-curvature="0" />
          <path
             d="m -408.97391,45.222333 h -10.6679 l -1.79656,3.620959 h -5.76568 l 10.01335,-19.135377 h 5.76568 l 10.01334,19.135377 h -5.76568 z m -8.81564,-3.732374 h 6.99123 l -3.48169,-7.046944 z"
             style="font-style:normal;font-variant:normal;font-weight:bold;font-stretch:normal;font-family:Syncopate;-inkscape-font-specification:'Syncopate Bold';stroke-width:0.71305043"
             id="path860"
             inkscape:connector-curvature="0" />
          <path
             d="m -380.64687,35.097573 q -0.54314,-0.264608 -1.43445,-0.598851 -0.89132,-0.334242 -2.01938,-0.626704 -1.12807,-0.306389 -2.45112,-0.501364 -1.32304,-0.208901 -2.71571,-0.208901 -1.11415,0 -1.90797,0.06963 -0.7799,0.06963 -1.32304,0.181048 -0.52922,0.111414 -0.84954,0.264608 -0.30639,0.139268 -0.47351,0.292462 -0.16712,0.153195 -0.22283,0.306389 -0.0418,0.153195 -0.0418,0.278535 0,0.417803 0.41781,0.738119 0.4178,0.306389 1.14199,0.557071 0.72419,0.236755 1.68514,0.459583 0.96095,0.208902 2.03331,0.445657 1.08629,0.222828 2.22828,0.501363 1.15592,0.264609 2.22828,0.626705 1.08629,0.362096 2.04724,0.849533 0.96095,0.47351 1.68514,1.114141 0.72419,0.640631 1.14199,1.476237 0.41781,0.835606 0.41781,1.907967 0,1.37875 -0.48744,2.367551 -0.48744,0.9888 -1.30912,1.671212 -0.80775,0.682411 -1.88011,1.100214 -1.07236,0.403876 -2.25614,0.626705 -1.16985,0.222828 -2.38147,0.292462 -1.19771,0.06963 -2.28399,0.06963 -2.84106,0 -5.26432,-0.47351 -2.40933,-0.459584 -4.26159,-1.155922 v -4.56798 q 1.90796,1.058435 4.34515,1.657286 2.45111,0.598851 5.23646,0.598851 1.64336,0 2.67394,-0.167122 1.04451,-0.181048 1.62943,-0.445656 0.58493,-0.278535 0.79383,-0.598851 0.2089,-0.320316 0.2089,-0.612778 0,-0.459583 -0.4178,-0.793826 -0.4178,-0.348169 -1.142,-0.598851 -0.72419,-0.264608 -1.68514,-0.47351 -0.96094,-0.222828 -2.04723,-0.431729 -1.07236,-0.222829 -2.21436,-0.47351 -1.14199,-0.250682 -2.22828,-0.584925 -1.07236,-0.348169 -2.03331,-0.793825 -0.96094,-0.459584 -1.68514,-1.072361 -0.72419,-0.626705 -1.14199,-1.434457 -0.4178,-0.82168 -0.4178,-1.894041 0,-1.267335 0.44565,-2.186502 0.44566,-0.919167 1.19771,-1.559798 0.76597,-0.654558 1.75477,-1.058434 1.00272,-0.403876 2.10294,-0.626705 1.10021,-0.222828 2.22828,-0.306389 1.12807,-0.08356 2.14472,-0.08356 1.11415,0 2.28399,0.111414 1.18378,0.111414 2.32577,0.320316 1.142,0.194974 2.20043,0.459583 1.07236,0.264608 1.9776,0.557071 z"
             style="font-style:normal;font-variant:normal;font-weight:bold;font-stretch:normal;font-family:Syncopate;-inkscape-font-specification:'Syncopate Bold';stroke-width:0.71305043"
             id="path862"
             inkscape:connector-curvature="0" />
        </g>
        <path
           transform="matrix(1.2462727,0,0,0.80239261,2.2598717,-1.6203215)"
           style="font-style:normal;font-weight:normal;font-size:22.88585854px;line-height:1.25;font-family:sans-serif;letter-spacing:0px;word-spacing:0px;fill:#8a8a8a;fill-opacity:1;stroke:none;stroke-width:0.57214642"
           d="m -401.48438,47.636719 v 15.353515 h 4.14454 V 47.636719 Z"
           id="text817-9"
           inkscape:connector-curvature="0" />
        <path
           transform="matrix(1.2462727,0,0,0.26710554,2.3637996,16.871696)"
           style="font-style:normal;font-weight:normal;font-size:22.88585854px;line-height:1.25;font-family:sans-serif;letter-spacing:0px;word-spacing:0px;fill:#8a8a8a;fill-opacity:1;stroke:none;stroke-width:0.57214642"
           d="m -401.48438,47.636719 v 15.353515 h 4.14454 V 47.636719 Z"
           id="text817-9-2"
           inkscape:connector-curvature="0" />
      </g>
    </g>
  </g>
</svg>
