<?xml version="1.0" encoding="UTF-8" standalone="no"?>
<svg
  xmlns:dc="http://purl.org/dc/elements/1.1/"
  xmlns:cc="http://creativecommons.org/ns#"
  xmlns:rdf="http://www.w3.org/1999/02/22-rdf-syntax-ns#"
  xmlns:svg="http://www.w3.org/2000/svg"
  xmlns="http://www.w3.org/2000/svg"
  xmlns:sodipodi="http://sodipodi.sourceforge.net/DTD/sodipodi-0.dtd"
  xmlns:inkscape="http://www.inkscape.org/namespaces/inkscape"
  version="1.1"
  id="svg2"
  xml:space="preserve"
  width="573.38666"
  height="114.58667"
  viewBox="0 0 573.38666 114.58667"
  sodipodi:docname="logo_ARiMR.eps"><metadata
     id="metadata8"><rdf:RDF><cc:Work
         rdf:about=""><dc:format>image/svg+xml</dc:format><dc:type
  rdf:resource="http://purl.org/dc/dcmitype/StillImage"/></cc:Work></rdf:RDF></metadata>
  <defs
    id="defs6"/>
  <sodipodi:namedview
    pagecolor="#ffffff"
    bordercolor="#666666"
    borderopacity="1"
    objecttolerance="10"
    gridtolerance="10"
    guidetolerance="10"
    inkscape:pageopacity="0"
    inkscape:pageshadow="2"
    inkscape:window-width="640"
    inkscape:window-height="480"
    id="namedview4"/>
  <g
    id="g10"
    inkscape:groupmode="layer"
    inkscape:label="ink_ext_XXXXXX"
    transform="matrix(1.3333333,0,0,-1.3333333,0,114.58667)"><g
       id="g12"
       transform="scale(0.1)"><path
         d="m 4272.49,699.211 26.12,16.238 -14.82,24.36 -26.48,-16.594 z M 4260.13,517.41 h 40.25 c -6.71,5.301 -7.41,20.129 -7.41,44.129 v 20.121 c 0,52.598 0.35,85.067 1.76,97.426 -10.94,-2.469 -22.59,-3.531 -34.6,-3.883 7.06,-4.59 7.42,-24.008 7.42,-59.305 v -53.656 c 0,-25.066 -0.7,-39.89 -7.42,-44.832 z m -38.13,161.676 -34.59,-3.883 c 6.71,-4.59 7.41,-23.652 7.41,-59.305 0,-123.257 -0.7,-189.273 -15.87,-200.562 l 0.7,-1.059 c 28.59,5.996 41.65,35.653 41.65,90.723 0,38.891 -1.41,77.715 -1.41,117.605 0,18.711 0.35,37.782 2.11,56.481 z m -25.41,21.535 28.95,13.762 -12,25.426 -27.89,-13.774 10.94,-25.414 z m -33.88,-148.258 c -9.54,-12.715 -25.42,-19.773 -43.07,-19.773 -30.36,0 -52.25,25.062 -52.25,62.484 0,44.125 22.24,71.653 52.95,71.653 16.95,0 28.61,-9.875 34.95,-28.938 l 1.06,37.063 c -11.3,3.171 -22.59,4.234 -34.24,4.234 -49.07,0 -84.01,-35.297 -84.01,-86.137 0,-48.351 32.47,-79.84 72.71,-79.84 30.36,0 51.9,14.536 51.9,38.539 v 0.715 z m -182.5,49.77 v -24.707 c 0,-29.305 -9.89,-43.422 -32.13,-43.422 -16.6,0 -27.53,9.531 -27.53,22.937 0,21.188 21.53,30.012 59.66,45.192 z m 5.29,-86.899 31.77,2.176 c -8.12,4.942 -12.01,24.715 -12.01,58.953 0,34.594 1.77,57.192 1.77,68.836 0,24 -12.35,33.887 -43.77,33.887 -43.77,0 -67.08,-14.473 -67.08,-31.063 0,-7.765 5.3,-13.062 13.08,-13.062 14.46,0 15.53,15.887 20.82,23.297 4.24,6.004 12,9.535 21.53,9.535 20.48,0 29.65,-9.883 29.65,-32.129 0,-20.469 -5.64,-24 -31.42,-35.297 -36.35,-15.887 -58.24,-26.828 -58.24,-50.125 0,-19.418 19.42,-37.133 44.47,-37.133 19.77,0 35.66,10.657 44.84,29.719 0.35,-10.238 1.77,-19.773 4.59,-27.594 z m -108.72,159.969 h -126.39 l -6.7,-32.836 c 10.59,18.02 29.65,21.188 62.13,21.188 h 33.54 L 3729.16,517.41 h 146.9 l 4.59,33.184 c -14.82,-20.477 -37.06,-21.883 -70.59,-21.883 h -43.42 l 110.14,146.492 z M 3667.44,541.418 c 25.07,67.422 34.94,108.371 34.94,120.727 0,4.941 -1.05,9.179 -3.17,13.058 h 36.72 c -15.54,-17.996 -28.25,-60.715 -52.61,-122.137 -36.36,-92.55 -63.89,-138.789 -108.43,-138.789 -18.7,0 -30.36,9.176 -30.36,17.293 0,5.653 5.65,6.356 18.01,6.356 6.35,0 11.65,-0.352 15.53,-0.352 19.48,0 30.42,1.41 41.72,15.535 19.76,24.356 28.23,49.766 28.23,62.832 0,4.645 -7.4,44.536 -30.35,112.313 -9.54,27.887 -15.19,43.422 -22.3,46.25 l 24.42,2.816 h 3.17 c 10.23,0 18.36,-44.472 44.48,-135.902 z M 3489.17,517.41 h 40.24 c -6,4.942 -7.41,17.653 -7.41,39.192 0,17.64 -0.35,32.468 -0.35,44.472 0,43.063 2.47,55.067 23.65,55.067 6.7,0 13.06,-1.059 19.07,-1.059 8.81,0 13.76,3.879 13.76,10.598 0,7.761 -7.07,13.406 -19.07,13.406 -15.17,0 -26.47,-7.762 -37.41,-24.711 -0.71,15.527 0.35,21.543 -6,21.543 -2.12,0 -10.94,-1.773 -26.48,-4.242 7.06,-4.949 7.41,-25.774 7.41,-64.606 v -44.828 c 0,-25.066 -0.7,-39.89 -7.41,-44.832 z m -60.36,-2.176 27.89,2.176 c -7.06,6.004 -7.77,20.828 -7.77,45.895 v 19.765 c 0,54.008 1.41,85.782 2.12,96.016 l -34.59,-3.883 c 5.64,-3.527 7.06,-15.18 7.06,-36.004 v -40.945 c 0,-41.313 -5.66,-63.547 -35.66,-63.547 -25.07,0 -32.83,16.59 -32.83,48.008 v 2.121 l 0.7,81.891 c 0,10.953 -1.05,12.359 -7.41,12.359 -0.35,0 -1.05,-0.356 -2.12,-0.356 l -23.29,-3.527 c 6,-2.82 7.4,-6.707 7.4,-13.773 0,-3.875 -0.7,-25.407 -0.7,-64.239 v -6.714 c 0,-23.641 0.36,-41.653 7.06,-54.707 7.42,-14.122 21.88,-22.661 40.61,-22.661 18.7,0 36.34,11.36 47.29,31.129 l 1.06,-25.765 v -1.469 c 0,-1.418 0,-1.77 1.41,-1.77 h 1.77 z m -191.68,146.559 -1.77,-101.316 v -2.825 c 0,-29.648 10.24,-44.543 30,-44.543 13.08,0 25.07,5.715 33.55,15.602 l 1.05,15.887 c -6.71,-7.059 -13.06,-10.594 -20.82,-10.594 -13.42,0 -18.01,10.594 -18.01,33.18 v 2.472 l 1.76,92.84 h 2.83 c 19.07,0 28.6,3.527 28.6,10.59 0,2.117 -0.72,2.117 -2.83,2.117 h -28.6 l 1.07,51.539 -25.78,-7.769 -0.7,-43.77 -17.29,-1.41 v -11.297 l 16.94,-0.703 z M 3085.33,517.41 h 40.25 c -6.7,4.942 -7.41,19.766 -7.41,44.832 v 40.242 c 0.35,0 0.71,0.352 1.06,0.352 2.12,0 4.94,-2.469 7.76,-7.059 l 51.89,-78.367 h 36.72 c -12.37,4.942 -31.42,41.301 -74.84,96.723 5.65,4.594 9.88,8.828 13.42,12.359 l 45.54,48.711 h -35.67 c 2.13,-3.176 2.83,-6.351 2.83,-9.887 0,-10.941 -15.88,-32.125 -48.71,-55.066 v 154.617 l -36.01,-5.297 c 9.53,-6.355 10.94,-25.062 10.94,-57.183 0,-17.297 -0.35,-38.481 -0.35,-63.895 0,-26.48 0.35,-48.719 0.35,-66.363 0,-32.121 -1.05,-50.481 -7.77,-54.719 z m -60.36,-2.176 27.89,2.176 c -7.06,6.004 -7.77,20.828 -7.77,45.895 v 19.765 c 0,54.008 1.42,85.782 2.13,96.016 l -34.6,-3.883 c 5.65,-3.527 7.06,-15.18 7.06,-36.004 v -40.945 c 0,-41.313 -5.65,-63.547 -35.66,-63.547 -25.06,0 -32.82,16.59 -32.82,48.008 v 2.121 l 0.7,81.891 c 0,10.953 -1.06,12.359 -7.42,12.359 -0.34,0 -1.04,-0.356 -2.11,-0.356 l -23.3,-3.527 c 6,-2.82 7.41,-6.707 7.41,-13.773 0,-3.875 -0.7,-25.407 -0.7,-64.239 v -6.714 c 0,-23.641 0.35,-41.653 7.06,-54.707 7.41,-14.122 21.89,-22.661 40.6,-22.661 18.71,0 36.35,11.36 47.29,31.129 l 1.07,-25.765 v -1.469 c 0,-1.418 0,-1.77 1.41,-1.77 h 1.76 z m -214.28,2.176 h 40.25 c -6,4.942 -7.4,17.653 -7.4,39.192 0,17.64 -0.37,32.468 -0.37,44.472 0,43.063 2.47,55.067 23.66,55.067 6.7,0 13.05,-1.059 19.06,-1.059 8.82,0 13.77,3.879 13.77,10.598 0,7.761 -7.06,13.406 -19.06,13.406 -15.18,0 -26.48,-7.762 -37.43,-24.711 -0.7,15.527 0.37,21.543 -5.99,21.543 -2.13,0 -10.95,-1.773 -26.49,-4.242 7.07,-4.949 7.43,-25.774 7.43,-64.606 v -44.828 c 0,-25.066 -0.71,-39.89 -7.43,-44.832 z m -86.82,144.383 -1.77,-101.316 v -2.825 c 0,-29.648 10.23,-44.543 30,-44.543 13.07,0 25.07,5.715 33.54,15.602 l 1.05,15.887 c -6.7,-7.059 -13.06,-10.594 -20.82,-10.594 -13.41,0 -18,10.594 -18,33.18 v 2.472 l 1.76,92.84 h 2.83 c 19.06,0 28.58,3.527 28.58,10.59 0,2.117 -0.7,2.117 -2.82,2.117 h -28.59 l 1.06,51.539 -25.77,-7.769 -0.7,-43.77 -17.3,-1.41 v -11.297 l 16.95,-0.703 z M 2581.25,556.602 c -1.77,-15.184 -2.47,-24.36 -2.47,-27.536 0,-8.828 18.71,-15.957 44.83,-15.957 36.01,0 63.9,23.012 63.9,49.133 0,20.473 -13.07,30.36 -35.65,43.074 -22.6,13.051 -38.84,21.524 -38.84,39.883 0,13.059 10.24,21.887 27.19,21.887 16.23,0 28.24,-7.418 37.07,-22.594 l 1.05,30.012 c -16.59,3.519 -29.3,4.582 -37.77,4.582 -35.31,0 -54.37,-15.18 -54.37,-39.887 0,-21.183 14.13,-33.535 39.54,-47.301 20.82,-11.296 33.19,-19.062 33.19,-36.363 0,-16.945 -13.42,-29.652 -33.9,-29.652 -21.89,0 -36.01,9.887 -43.77,30.719 z m -115.08,73.066 h 3.18 c 3.53,0 11.29,-0.703 23.65,-0.703 h 4.59 c 25.06,0 34.24,0.351 34.24,11.996 0,13.769 -12,26.125 -28.95,26.125 -19.06,0 -34.24,-15.535 -36.71,-37.418 z m 92.48,-73.785 v -4.235 c 0,-16.941 -24.7,-38.539 -56.47,-38.539 -41.66,0 -69.54,31.489 -69.54,82.317 0,52.246 29.65,83.66 73.41,83.66 33.54,0 55.07,-20.473 55.07,-46.598 0,-13.761 -16.58,-13.761 -62.83,-13.761 -10.23,0 -21.88,0 -34.24,0.707 -1.76,-6.352 -2.47,-12.711 -2.47,-20.129 0,-40.946 21.18,-63.891 51.9,-63.891 17.29,0 31.76,6.711 45.17,20.469 z m -292.27,187.808 h -10.25 c 8.83,-9.183 8.83,-44.836 8.83,-108.378 v -14.469 c 0,-60.715 -0.36,-94.61 -8.83,-103.434 h 48.01 c -8.83,9.887 -8.83,38.473 -8.83,87.551 v 21.531 h 2.83 c 14.47,0 19.77,-5.297 26.83,-15.183 l 60.36,-84.723 c 5.3,-7.41 8.82,-9.176 17.65,-9.176 h 33.54 c -11.3,7.77 -25.42,23.297 -42.37,46.594 l -50.47,70.254 c 35.3,14.828 53.65,37.769 53.65,66.719 0,29.296 -18.35,45.175 -54.35,45.175 -15.19,0 -40.61,-2.461 -76.6,-2.461 z m 28.93,-103.433 v 20.129 c 0,35.644 0.71,59.297 3.18,70.593 8.47,1.055 15.89,1.055 22.24,1.055 28.95,0 42.71,-13.418 42.71,-41.297 0,-32.828 -18.7,-51.89 -53.29,-51.89 -5.31,0 -10.25,0.351 -14.84,1.41 z m -199.44,-38.125 v -24.707 c 0,-29.305 -9.88,-43.422 -32.12,-43.422 -16.59,0 -27.53,9.531 -27.53,22.937 0,21.188 21.53,30.012 59.65,45.192 z m 5.3,-86.899 31.77,2.176 c -8.12,4.942 -12.01,24.715 -12.01,58.953 0,34.594 1.77,57.192 1.77,68.836 0,24 -12.35,33.887 -43.77,33.887 -43.77,0 -67.07,-14.473 -67.07,-31.063 0,-7.765 5.29,-13.062 13.06,-13.062 14.47,0 15.53,15.887 20.83,23.297 4.24,6.004 12,9.535 21.53,9.535 20.47,0 29.65,-9.883 29.65,-32.129 0,-20.469 -5.65,-24 -31.41,-35.297 -36.36,-15.887 -58.25,-26.828 -58.25,-50.125 0,-19.418 19.41,-37.133 44.47,-37.133 19.77,0 35.66,10.657 44.84,29.719 0.35,-10.238 1.76,-19.773 4.59,-27.594 z m -122.85,163.852 -34.59,-3.883 c 6.7,-4.59 7.41,-23.652 7.41,-59.305 0,-123.257 -0.71,-189.273 -15.89,-200.562 l 0.71,-1.059 c 28.59,5.996 41.65,35.653 41.65,90.723 0,38.891 -1.41,77.715 -1.41,117.605 0,18.711 0.36,37.782 2.12,56.481 z m -25.41,21.535 28.94,13.762 -12.01,25.426 -27.88,-13.774 10.95,-25.414 z m -33.89,-148.258 c -9.54,-12.715 -25.43,-19.773 -43.07,-19.773 -30.36,0 -52.25,25.062 -52.25,62.484 0,44.125 22.25,71.653 52.96,71.653 16.93,0 28.59,-9.875 34.94,-28.938 l 1.06,37.063 c -11.3,3.171 -22.59,4.234 -34.24,4.234 -49.07,0 -84.01,-35.297 -84.01,-86.137 0,-48.351 32.47,-79.84 72.71,-79.84 30.36,0 51.9,14.536 51.9,38.539 v 0.715 z M 1638.38,517.41 h 40.24 c -6.7,4.942 -7.41,19.766 -7.41,44.832 v 33.891 c 0,38.472 0,63.187 35.3,63.187 28.95,0 30.01,-15.886 30.01,-45.535 v -8.469 c 0,-28.597 -0.36,-57.898 -1.76,-87.906 h 34.59 c -7.06,6.004 -7.42,17.653 -7.42,35.656 v 45.895 c 0,52.941 -3.18,80.125 -39.89,80.125 -20.83,0 -35.65,-7.762 -49.77,-26.121 v 4.59 c 0,7.058 -0.71,13.058 -1.77,17.648 l -32.12,-3.527 c 7.06,-4.949 7.42,-25.774 7.42,-64.606 v -44.828 c 0,-25.066 -0.71,-39.89 -7.42,-44.832 z m -122.49,112.258 c 2.47,21.883 17.65,37.418 36.71,37.418 16.95,0 28.94,-12.356 28.94,-26.125 0,-11.645 -9.17,-11.996 -34.24,-11.996 h -4.59 c -12.35,0 -20.12,0.703 -23.64,0.703 h -3.18 z m 92.48,-73.785 c -13.41,-13.758 -27.88,-20.469 -45.18,-20.469 -30.71,0 -51.89,22.945 -51.89,63.891 0,7.418 0.71,13.777 2.47,20.129 12.35,-0.707 24,-0.707 34.24,-0.707 46.24,0 62.83,0 62.83,13.761 0,26.125 -21.53,46.598 -55.06,46.598 -43.77,0 -73.43,-31.414 -73.43,-83.66 0,-50.828 27.89,-82.317 69.54,-82.317 31.77,0 56.48,21.598 56.48,38.539 v 4.235 z m -227.68,-32.828 c -28.95,-18.055 -43.42,-32.528 -43.42,-49.125 0,-21.883 22.94,-37.774 56.83,-37.774 29.3,0 50.13,22.953 50.13,44.836 0,25.418 -20.48,32.824 -63.54,42.063 z m 37.77,103.082 c 0,26.121 -12.71,42.715 -28.24,42.715 -15.18,0 -26.47,-12.711 -26.47,-33.539 0,-24.356 13.76,-40.59 30,-40.59 14.12,0 24.71,11.644 24.71,31.414 z m 7.42,47.304 c 13.76,0.704 24,0 30.7,2.114 0.36,-2.469 0.71,-3.879 0.71,-4.231 0,-0.711 -0.35,-2.125 -0.35,-3.531 -4.59,-3.18 -11.65,-3.887 -20.83,-3.887 6.71,-7.054 9.89,-16.234 9.89,-27.535 0,-26.828 -18.37,-45.535 -52.96,-52.598 -21.53,-9.871 -32.12,-18.359 -32.12,-25.414 0,-8.816 15.89,-12.351 47.3,-20.476 42.01,-10.942 64.25,-20.535 64.25,-49.125 0,-24.356 -17.3,-37.059 -44.84,-53.653 -17.64,-10.593 -32.47,-20.828 -56.47,-20.828 -33.54,0 -59.3,21.176 -59.3,46.942 0,28.246 22.93,39.898 52.24,65.367 -22.6,4.941 -33.19,11.652 -33.19,24.008 0,16.945 19.07,15.886 40.25,33.179 -21.18,2.825 -35.3,21.543 -35.3,45.192 0,29.293 24.35,50.121 62.48,50.121 9.88,0 18.71,-1.406 27.54,-5.645 z m -260.52,-44.839 38.12,91.082 33.18,-91.082 h -71.3 z M 1086.57,517.41 h 45.25 c -1.06,3.535 -1.76,7.059 -1.76,10.949 0,15.532 6.7,31.414 14.47,50.125 l 15.18,37.067 h 82.24 l 35.66,-98.141 h 38.48 c -20.12,28.598 -50.83,103.785 -87.55,226.281 h -43.77 c 1.77,-3.539 2.83,-7.058 2.83,-10.949 0,-4.933 -9.89,-38.125 -34.6,-95.664 -22.24,-52.242 -43.42,-92.137 -66.43,-119.668 v 0"
         style="fill:#193f82;fill-opacity:1;fill-rule:evenodd;stroke:none"
         id="path14" /><path
    d="m 4256.61,197.504 v -24.711 c 0,-29.301 -9.87,-43.422 -32.12,-43.422 -16.59,0 -27.54,9.531 -27.54,22.949 0,21.176 21.55,30 59.66,45.184 z m 5.3,-86.899 31.77,2.172 c -8.11,4.946 -12.01,24.711 -12.01,58.95 0,34.597 1.78,57.195 1.78,68.843 0,24 -12.36,33.895 -43.77,33.895 -43.78,0 -67.08,-14.485 -67.08,-31.078 0,-7.758 5.29,-13.055 13.06,-13.055 14.48,0 15.53,15.887 20.82,23.297 4.24,6.004 12.02,9.535 21.55,9.535 20.47,0 29.65,-9.887 29.65,-32.125 0,-20.473 -5.66,-24 -31.42,-35.297 -36.37,-15.89 -58.25,-26.832 -58.25,-50.129 0,-19.418 19.41,-37.129 44.48,-37.129 19.77,0 35.65,10.649 44.82,29.715 0.37,-10.238 1.77,-19.773 4.6,-27.594 z m -168.37,0.352 h 22.23 c 20.82,89.371 34.94,143.027 47.3,159.617 h -33.18 c 3.18,-3.879 4.59,-8.476 4.59,-14.472 0,-24.707 -8.83,-65.313 -24.71,-122.493 -18.72,73.778 -29.3,115.434 -29.3,124.965 0,4.239 1.05,8.121 3.52,12 h -42.71 c 4.24,-5.648 5.65,-11.297 5.65,-18.359 0,-16.235 -10.23,-56.129 -33.18,-118.606 -14.82,94.961 -17.29,139.082 -30.36,139.082 0,0 -2.11,-0.351 -5.65,-0.703 l -20.11,-1.414 c 10.58,-9.886 21.52,-63.535 38.47,-159.617 h 22.95 c 5.64,23.359 22.59,65.367 38.83,129.613 6.35,-18.359 18,-61.781 35.66,-129.613 z m -208.28,146.207 -1.76,-101.316 v -2.821 c 0,-29.66 10.23,-44.543 30,-44.543 13.06,0 25.06,5.711 33.54,15.598 l 1.06,15.879 c -6.71,-7.063 -13.07,-10.59 -20.83,-10.59 -13.41,0 -18,10.59 -18,33.184 v 2.468 l 1.76,92.848 h 2.83 c 19.06,0 28.58,3.524 28.58,10.586 0,2.117 -0.7,2.117 -2.82,2.117 h -28.59 l 1.06,51.539 -25.77,-7.769 -0.7,-43.77 -17.3,-1.41 v -11.293 l 16.94,-0.707 z M 3851.03,147.73 c -9.55,-12.707 -25.42,-19.769 -43.07,-19.769 -30.37,0 -52.26,25.066 -52.26,62.484 0,44.125 22.25,71.653 52.96,71.653 16.95,0 28.6,-9.883 34.94,-28.946 l 1.07,37.067 c -11.3,3.179 -22.59,4.246 -34.24,4.246 -49.07,0 -84.01,-35.305 -84.01,-86.145 0,-48.359 32.47,-79.836 72.71,-79.836 30.35,0 51.9,14.539 51.9,38.543 v 0.703 z m -179.33,146.844 26.11,16.246 -14.82,24.36 -26.48,-16.59 15.19,-24.016 z m -12.36,-181.797 h 40.24 c -6.71,5.305 -7.41,20.121 -7.41,44.133 v 20.117 c 0,52.602 0.35,85.071 1.76,97.438 -10.94,-2.477 -22.59,-3.539 -34.59,-3.891 7.06,-4.582 7.41,-24.004 7.41,-59.304 v -53.657 c 0,-25.066 -0.71,-39.89 -7.41,-44.836 z m -161.68,0 h 40.25 c -6.71,4.946 -7.41,19.77 -7.41,44.836 v 33.891 c 0,38.473 0,63.187 35.3,63.187 28.94,0 30,-15.886 30,-45.543 v -8.464 c 0,-28.594 -0.35,-57.895 -1.77,-87.907 h 34.6 c -7.06,6.008 -7.42,17.653 -7.42,35.657 v 45.898 c 0,52.941 -3.17,80.133 -39.88,80.133 -20.83,0 -35.66,-7.77 -49.78,-26.125 v 4.582 c 0,7.058 -0.7,13.07 -1.76,17.652 l -32.13,-3.531 c 7.06,-4.945 7.42,-25.77 7.42,-64.598 v -44.832 c 0,-25.066 -0.7,-39.89 -7.42,-44.836 z m -72.72,0 h 40.24 c -6.7,4.946 -7.41,19.77 -7.41,45.188 v 27.883 c 0,101.672 0.36,159.574 1.76,174.39 l -34.59,-6.004 c 6.71,-3.882 7.41,-25.062 7.41,-65.304 v -54.36 c 0,-26.48 0.36,-48.722 0.36,-66.718 0,-32.481 -1.06,-50.832 -7.77,-55.075 z m -103.79,148.618 c -28.58,0 -44.83,-22.235 -44.83,-65.309 0,-47.652 21.18,-74.121 51.54,-74.121 27.54,0 41.66,23.293 41.66,69.183 0,42.364 -20.48,70.247 -48.37,70.247 z m 6.01,13.07 c 44.82,0 70.95,-28.246 70.95,-74.137 0,-57.183 -31.06,-91.844 -78.01,-91.844 -45.89,0 -72.37,29.368 -72.37,79.836 0,53.317 33.54,86.145 79.43,86.145 z m -245.7,64.594 h -10.23 c 8.83,-9.188 8.83,-44.832 8.83,-108.379 v -14.469 c 0,-60.719 -0.35,-94.606 -8.83,-103.434 h 48.01 c -8.83,9.887 -8.83,38.481 -8.83,87.551 v 21.535 h 2.83 c 14.47,0 19.76,-5.3 26.83,-15.179 l 60.36,-84.719 c 5.29,-7.418 8.82,-9.188 17.65,-9.188 h 33.54 c -11.3,7.778 -25.42,23.309 -42.37,46.602 l -50.47,70.25 c 35.29,14.82 53.65,37.773 53.65,66.715 0,29.304 -18.36,45.183 -54.35,45.183 -15.19,0 -40.61,-2.468 -76.62,-2.468 z m 28.95,-103.43 v 20.125 c 0,35.648 0.7,59.301 3.18,70.598 8.47,1.05 15.88,1.05 22.24,1.05 28.95,0 42.71,-13.414 42.71,-41.293 0,-32.832 -18.71,-51.894 -53.31,-51.894 -5.29,0 -10.23,0.355 -14.82,1.414 z m -196.27,58.945 26.12,16.246 -14.82,24.36 -26.48,-16.59 15.18,-24.016 z m -12.35,-181.797 h 40.24 c -6.71,5.305 -7.41,20.121 -7.41,44.133 v 20.117 c 0,52.602 0.35,85.071 1.76,97.438 -10.94,-2.477 -22.59,-3.539 -34.59,-3.891 7.06,-4.582 7.41,-24.004 7.41,-59.304 v -53.657 c 0,-25.066 -0.7,-39.89 -7.41,-44.836 z m -38.13,161.688 -34.6,-3.891 c 6.71,-4.582 7.41,-23.652 7.41,-59.304 0,-123.2622 -0.7,-189.2661 -15.87,-200.5669 l 0.7,-1.06638 c 28.59,6.00778 41.65,35.66408 41.65,90.73428 0,38.891 -1.41,77.715 -1.41,117.606 0,18.707 0.35,37.777 2.12,56.488 z m -25.42,21.527 28.95,13.77 -12,25.418 -27.89,-13.774 10.94,-25.414 z M 2804.36,147.73 c -9.54,-12.707 -25.42,-19.769 -43.07,-19.769 -30.36,0 -52.25,25.066 -52.25,62.484 0,44.125 22.25,71.653 52.96,71.653 16.94,0 28.6,-9.883 34.93,-28.946 l 1.07,37.067 c -11.29,3.179 -22.59,4.246 -34.24,4.246 -49.07,0 -84,-35.305 -84,-86.145 0,-48.359 32.46,-79.836 72.7,-79.836 30.36,0 51.9,14.539 51.9,38.543 v 0.703 z m -182.5,49.774 v -24.711 c 0,-29.301 -9.89,-43.422 -32.13,-43.422 -16.59,0 -27.53,9.531 -27.53,22.949 0,21.176 21.53,30 59.66,45.184 z m 5.29,-86.899 31.77,2.172 c -8.12,4.946 -12.01,24.711 -12.01,58.95 0,34.597 1.77,57.195 1.77,68.843 0,24 -12.35,33.895 -43.77,33.895 -43.77,0 -67.07,-14.485 -67.07,-31.078 0,-7.758 5.29,-13.055 13.07,-13.055 14.46,0 15.53,15.887 20.82,23.297 4.24,6.004 12,9.535 21.53,9.535 20.48,0 29.65,-9.887 29.65,-32.125 0,-20.473 -5.64,-24 -31.42,-35.297 -36.35,-15.89 -58.24,-26.832 -58.24,-50.129 0,-19.418 19.42,-37.129 44.47,-37.129 19.77,0 35.66,10.649 44.84,29.715 0.35,-10.238 1.77,-19.773 4.59,-27.594 z m -108.72,159.969 h -126.38 l -6.71,-32.832 c 10.59,18.012 29.65,21.188 62.13,21.188 h 33.54 l -110.2,-146.153 h 146.91 l 4.58,33.184 c -14.82,-20.473 -37.06,-21.879 -70.59,-21.879 h -43.42 l 110.14,146.492 z m -190.63,24 26.12,16.246 -14.83,24.36 -26.47,-16.59 15.18,-24.016 z m -12.36,-181.797 h 40.24 c -6.7,5.305 -7.41,20.121 -7.41,44.133 v 20.117 c 0,52.602 0.35,85.071 1.76,97.438 -10.94,-2.477 -22.59,-3.539 -34.59,-3.891 7.06,-4.582 7.41,-24.004 7.41,-59.304 v -53.657 c 0,-25.066 -0.7,-39.89 -7.41,-44.836 z m -161.67,0 h 40.24 c -6.71,4.946 -7.41,19.77 -7.41,44.836 v 33.891 c 0,38.473 0,63.187 35.29,63.187 28.96,0 30.01,-15.886 30.01,-45.543 v -8.464 c 0,-28.594 -0.35,-57.895 -1.76,-87.907 h 34.6 c -7.06,6.008 -7.43,17.653 -7.43,35.657 v 45.898 c 0,52.941 -3.17,80.133 -39.88,80.133 -20.83,0 -35.65,-7.77 -49.77,-26.125 v 4.582 c 0,7.058 -0.71,13.07 -1.77,17.652 l -32.12,-3.531 c 7.06,-4.945 7.41,-25.77 7.41,-64.598 v -44.832 c 0,-25.066 -0.7,-39.89 -7.41,-44.836 z m -109.43,0 h 40.24 c -6,4.946 -7.41,17.653 -7.41,39.192 0,17.644 -0.36,32.472 -0.36,44.476 0,43.067 2.48,55.063 23.65,55.063 6.71,0 13.07,-1.059 19.07,-1.059 8.82,0 13.76,3.887 13.76,10.598 0,7.762 -7.05,13.418 -19.06,13.418 -15.18,0 -26.48,-7.77 -37.42,-24.719 -0.7,15.527 0.36,21.531 -5.99,21.531 -2.13,0 -10.95,-1.761 -26.48,-4.234 7.06,-4.945 7.41,-25.77 7.41,-64.598 v -44.832 c 0,-25.066 -0.71,-39.89 -7.41,-44.836 z m -122.49,112.266 c 2.47,21.879 17.64,37.406 36.7,37.406 16.95,0 28.95,-12.347 28.95,-26.117 0,-11.648 -9.17,-11.996 -34.24,-11.996 h -4.59 c -12.36,0 -20.13,0.707 -23.65,0.707 h -3.17 z m 92.48,-73.785 c -13.41,-13.77 -27.88,-20.469 -45.18,-20.469 -30.71,0 -51.89,22.941 -51.89,63.895 0,7.406 0.7,13.761 2.47,20.121 12.35,-0.703 24,-0.703 34.24,-0.703 46.24,0 62.83,0 62.83,13.757 0,26.125 -21.54,46.606 -55.07,46.606 -43.77,0 -73.42,-31.422 -73.42,-83.676 0,-50.828 27.89,-82.305 69.54,-82.305 31.77,0 56.48,21.59 56.48,38.543 v 4.231 z m -217.45,-24 c -27.53,0 -50.12,23.648 -50.12,64.246 0,44.828 23.65,70.594 59.66,70.594 11.29,0 17.99,-2.821 20.47,-8.821 2.47,-6.355 2.47,-32.121 2.47,-76.953 0,-30.363 -3.53,-49.066 -32.48,-49.066 z m 62.13,232.98 -35.66,-5.3 c 5.65,-8.817 6.36,-22.942 6.36,-44.118 v -37.066 c -7.06,0.711 -12.71,0.711 -16.95,0.711 -59.65,0 -94.24,-34.598 -94.24,-88.617 0,-46.946 25.41,-77.364 62.83,-77.364 20.12,0 37.06,8.176 46.95,21.946 v -4.235 c 0,-6.703 0.7,-11.648 1.41,-15.59 l 33.18,2.172 c -8.82,7.063 -8.82,34.953 -8.82,85.438 0,93.187 3.17,147.207 4.94,162.023 z m -238.63,-98.843 c 27.89,0 48.37,-27.883 48.37,-70.247 0,-45.89 -14.13,-69.183 -41.67,-69.183 -30.36,0 -51.54,26.469 -51.54,74.121 0,43.074 16.25,65.309 44.84,65.309 z m 6,13.07 c -45.89,0 -79.42,-32.828 -79.42,-86.145 0,-50.468 26.47,-79.836 72.35,-79.836 46.96,0 78.02,34.661 78.02,91.844 0,45.891 -26.12,74.137 -70.95,74.137 z m -237.22,-166.684 88.25,210.102 2.12,-123.551 c 0.35,-19.426 0.7,-29.664 0.7,-30.367 0,-22.942 -1.41,-39.18 -9.18,-51.188 h 51.89 c -14.47,18.715 -16.58,74.84 -16.58,171.211 0,27.887 1.77,46.246 8.46,55.071 h -34.59 c -7.06,0 -9.18,-1.77 -11.65,-8.121 l -70.95,-168.731 -63.89,170.496 c -2.12,5.996 -3.88,6.356 -9.18,6.356 h -39.54 c 7.06,-7.063 8.83,-14.121 8.83,-24.715 0,-122.489 -4.94,-189.207 -19.06,-201.567 h 40.24 c -7.41,11.305 -8.12,24.36 -8.12,39.895 v 10.945 l 0.71,154.266 81.54,-210.102 z m -262.99,186.793 26.12,16.246 -14.82,24.36 -26.48,-16.59 15.18,-24.016 z m -12.36,-181.797 h 40.25 c -6.71,5.305 -7.41,20.121 -7.41,44.133 v 20.117 c 0,52.602 0.35,85.071 1.76,97.438 -10.94,-2.477 -22.59,-3.539 -34.6,-3.891 7.06,-4.582 7.42,-24.004 7.42,-59.304 v -53.657 c 0,-25.066 -0.71,-39.89 -7.42,-44.836 v 0"
    style="fill:#193f82;fill-opacity:1;fill-rule:evenodd;stroke:none"
    id="path16"/><path
    d="m 737.027,112.945 c 1.536,-0.105 2.664,-0.172 3.383,-0.172 l 3.32,0.172 19.219,-65.0622 h 42.309 v 3.6211 c -5.68,0.207 -9.746,1.4063 -12.172,3.6602 -2.434,2.207 -5.305,8.75 -8.59,19.5625 l -12.207,40.3944 c 12.207,3.359 20.723,7.32 25.547,11.883 7.629,7.351 11.422,15.562 11.422,24.699 0,8.656 -3.281,15.738 -9.817,21.242 -6.566,5.5 -17.882,8.254 -33.957,8.254 h -56.336 l -0.996,-3.66 c 6.328,-0.434 10.403,-1.371 12.114,-2.75 1.742,-1.375 2.632,-3.355 2.632,-5.976 0,-2.778 -0.714,-6.54 -2.121,-11.305 L 695.535,71.9727 c -2.531,-8.6641 -5.336,-14.2305 -8.379,-16.711 -3.047,-2.4883 -7.832,-3.7578 -14.363,-3.7578 l -1.195,-3.6211 h 65.429 l 1.395,3.6211 c -6.563,0.1367 -10.871,0.9766 -12.926,2.4805 -2.082,1.5117 -3.109,3.4844 -3.109,5.9765 0,2.6836 0.855,6.875 2.597,12.5782 z m -160.64,68.25 h -47.813 l -1.219,-3.656 c 5.227,0 8.934,-0.434 11.125,-1.371 2.196,-0.91 4.688,-2.891 7.458,-5.906 L 517.004,71.7656 c -2.258,-7.6054 -5.867,-13.25 -10.856,-16.9023 -2.835,-2.0508 -6.949,-3.1524 -12.281,-3.3594 l -0.875,-3.6211 h 44.242 l 1.012,3.6211 c -5.465,0.207 -9.34,1.3086 -11.629,3.3203 -2.262,1.9805 -3.41,4.6289 -3.41,7.8906 0,2.4493 0.543,5.4375 1.582,9.0508 l 25.602,88.5934 12.031,-112.4762 h 4.082 L 643.152,158.18 617.965,71.7656 c -2.363,-8.0468 -5.266,-13.457 -8.703,-16.1718 -3.403,-2.711 -8.731,-4.0899 -15.91,-4.0899 l -1.188,-3.6211 h 66.906 l 0.875,3.6211 c -5.8,0.1367 -9.675,0.9375 -11.668,2.4102 -1.953,1.4765 -2.964,3.4297 -2.964,5.8828 0,2.6133 0.804,6.5976 2.39,11.9687 l 24.684,85.3394 c 2.363,8.118 5.23,13.559 8.605,16.309 3.367,2.754 8.254,4.125 14.735,4.125 l 1.175,3.656 H 649.961 L 586.23,89.5586 576.387,181.195 Z M 488.152,120 451.734,99.9297 443.07,69.2969 c -2.05,-7.2578 -5.711,-12.7344 -8.535,-14.8633 -2.824,-2.1211 -8.242,-3.3008 -14.316,-3.3008 l -1.114,-3.25 h 68.305 l 0.895,3.25 c -5.992,0.1172 -11.602,1.2969 -13.742,2.7227 -1.696,1.125 -3.032,3.3515 -3.032,5.3633 0,1.6992 0.989,5.0585 2.43,10.2031 L 488.152,120 Z m -140.894,-7.055 c 1.535,-0.105 2.664,-0.172 3.387,-0.172 l 3.316,0.172 19.219,-65.0622 h 42.308 v 3.6211 c -5.675,0.1953 -9.746,1.4063 -12.175,3.6524 -2.43,2.2148 -5.301,8.7578 -8.586,19.5703 L 382.52,115.121 c 12.207,3.359 20.722,7.32 25.55,11.883 7.621,7.351 11.422,15.562 11.422,24.699 0,8.656 -3.285,15.738 -9.812,21.242 -6.571,5.5 -17.895,8.25 -33.965,8.25 h -56.336 l -0.996,-3.656 c 6.336,-0.434 10.402,-1.371 12.113,-2.75 1.746,-1.375 2.633,-3.355 2.633,-5.976 0,-2.778 -0.723,-6.543 -2.117,-11.305 L 305.766,71.9727 c -2.528,-8.6641 -5.332,-14.2305 -8.379,-16.711 -3.047,-2.4883 -7.832,-3.7578 -14.364,-3.7578 l -1.199,-3.6211 h 65.434 l 1.398,3.6211 c -6.566,0.1289 -10.875,0.9766 -12.929,2.4805 -2.082,1.5117 -3.114,3.4844 -3.114,5.9765 0,2.6836 0.86,6.875 2.602,12.5782 l 12.043,40.4059 z M 238.598,90.8594 237.699,73.8281 c -0.297,-7.1875 -1.23,-12.2461 -2.722,-15.1758 -1.5,-2.9101 -3.129,-4.8359 -4.961,-5.7695 -0.868,-0.375 -4.094,-0.8437 -9.75,-1.3789 l -1.071,-3.6211 h 57.211 l 0.996,3.6211 c -4.156,0.3399 -7.152,1.5117 -8.918,3.5625 -1.8,2.0117 -2.695,5.2656 -2.695,9.7383 0,1.1719 0.102,4.6289 0.301,10.3398 l 4.394,109.1525 H 266.09 L 172.371,71.4844 c -6.812,-8.1953 -12.043,-13.6016 -15.672,-16.2227 -2.73,-1.914 -5.855,-3.1523 -9.386,-3.7578 l -0.965,-3.6211 h 39.507 v 3.6211 c -3.863,0.207 -6.593,0.9766 -8.253,2.3125 -1.664,1.3477 -2.5,2.8242 -2.5,4.4063 0,1.5117 0.336,2.9882 1.003,4.4921 0.829,1.9922 2.161,4.168 3.993,6.6211 l 9.351,11.3086 8.184,10.2149 h 40.965 z m 0,8.0859 2.531,43.4527 -36.774,-43.4527 h 34.243 z m 110.058,19.9027 c 2.328,-0.133 4.309,-0.2 5.918,-0.2 9.746,0 17.754,3.29 24.043,9.832 6.262,6.579 9.41,15.168 9.41,25.778 0,6.269 -1.679,11.062 -5,14.355 -3.347,3.25 -7.757,4.903 -13.23,4.903 -1.336,0 -2.91,-0.039 -4.723,-0.102 l -16.418,-54.566 z m 107.848,-2.457 36.191,20.207 c 0.266,0.14 4.043,14.757 10.274,18.007 3.242,1.692 6.844,2.825 12.25,2.825 l 1.422,3.582 h -67.145 l -1.105,-3.211 c 6.355,-0.371 12.402,-2.379 14.086,-3.547 1.664,-1.16 2.511,-2.75 2.511,-4.824 0,-2.262 -0.558,-5.852 -1.859,-10.289 l -6.625,-22.75 z m 281.918,2.457 c 2.332,-0.133 4.312,-0.2 5.918,-0.2 9.754,0 17.754,3.29 24.051,9.832 6.257,6.579 9.402,15.168 9.402,25.778 0,6.269 -1.676,11.074 -4.996,14.355 -3.348,3.25 -7.762,4.903 -13.234,4.903 -1.336,0 -2.907,-0.039 -4.719,-0.102 L 738.422,118.848 Z M 0,859.359 H 859.363 V 781.875 H 0 v 77.484 z M 859.363,768.055 V 694.723 H 655.492 v 0 c -44.816,27.894 -97.738,44.199 -154.379,44.199 -56.465,0 -109.402,-16.305 -154.215,-44.199 v 0 H 0 v 73.332 h 859.363 z m 0,-85.965 V 606.023 H 746.469 v 0 c -19.227,29.438 -43.836,55.133 -72.145,76.067 v 0 h 185.039 z m 0,-87.711 V 537.32 h -80.039 v 0 c -6.328,20.254 -15.101,39.168 -25.57,57.059 v 0 h 105.609 z m 0,-68.387 h -76.312 v 0 c 4.359,-15.719 7.359,-31.726 9.054,-48.238 -208.175,4.531 -424.46,-21.149 -583.175,-46.617 -0.274,5.328 -0.438,10.695 -0.438,16.133 0,3.929 0,8.097 0.262,11.902 v 0 H 0 v -44.598 h 112.77 v 0 C 63.707,405.57 24.9453,397.555 0,392.164 v -28.039 c 102.867,22.473 504.746,103.656 859.363,83.633 v 78.234 z m 0,-87.512 C 507.5,451.469 112.594,365.605 0,338.988 v -33.777 c 99.4688,23.82 502.535,113.836 859.363,100.363 v 32.906 z m 0,-39.16 C 508.711,402.629 116.664,305.527 0,274.32 v -39.73 c 100.328,27.289 502.281,129.879 859.363,126.406 v 38.324 z m 0,-40.507 C 502.676,350.313 107.348,237.195 0,204.492 v -45.875 c 79.6719,24.785 475.957,142.738 838.012,155.707 7.129,0.543 14.258,1.043 21.351,1.52 v 42.969 z m 0,-43.825 V 0 H 0 v 120.938 c 113.023,40.257 490.305,166.746 838.012,193.386 7.129,0.254 14.258,0.477 21.351,0.664 z M 0,471.094 v 54.898 h 219.504 v 0 c -5.094,-17.82 -8.559,-35.996 -10.047,-54.898 v 0 H 0 Z m 0,66.226 v 57.059 h 248.762 v 0 c -10.735,-17.891 -19.25,-36.805 -25.84,-57.059 v 0 H 0 Z m 0,68.703 v 76.067 h 327.945 v 0 c -28.312,-20.934 -52.64,-46.629 -71.922,-76.067 v 0 H 0 v 0"
    style="fill:#193f82;fill-opacity:1;fill-rule:evenodd;stroke:none"
    id="path18"/></g></g></svg>
