<svg width="24" height="24" viewBox="0 0 24 24" fill="none" xmlns="http://www.w3.org/2000/svg">
    <g id="icons/ bell">
        <path id="icon" fill-rule="evenodd" clip-rule="evenodd"
              d="M19 9.99536C19 5.93619 16.7616 3.11886 13.8654 2.27307C13.7605 2.00172 13.5948 1.74946 13.3695 1.53779C12.5997 0.814551 11.4003 0.814551 10.6305 1.53779C10.4057 1.749 10.2402 2.00061 10.1353 2.27128C7.23535 3.11339 5 5.92455 5 9.99536C5 12.6293 4.46898 14.1051 3.48596 15.1747C3.32161 15.3535 2.87632 15.7631 2.57468 16.0406L2.57465 16.0407L2.57465 16.0407L2.5745 16.0408C2.43187 16.172 2.32138 16.2736 2.28796 16.3073L2 16.5993V20.0094H8.08798C8.29384 21.0715 8.87009 21.782 9.9122 22.418C11.1941 23.2003 12.8059 23.2003 14.0878 22.418C15.0075 21.8567 15.6241 20.9942 15.8743 20.0094H22V16.5993L21.712 16.3073C21.6817 16.2766 21.5757 16.1787 21.437 16.0509C21.1363 15.7734 20.6823 15.3546 20.5154 15.1723C19.5317 14.0978 19 12.62 19 9.99536ZM13.7367 20.0094H10.1786C10.3199 20.2723 10.5607 20.4707 10.954 20.7107C11.5963 21.1027 12.4037 21.1027 13.046 20.7107C13.3434 20.5292 13.5758 20.2891 13.7367 20.0094ZM19.0402 16.5228C19.2506 16.7526 19.7016 17.1728 20 17.4473V18.0094H4V17.4477C4.29607 17.1765 4.74843 16.7566 4.95849 16.5281C6.29422 15.0748 7 13.1132 7 9.99536C7 6.21526 9.33277 4.00774 12 4.00774C14.6597 4.00774 17 6.22665 17 9.99536C17 13.1032 17.706 15.0654 19.0402 16.5228Z"
              fill="#0A54A3"/>
    </g>
</svg>
