<svg width="25" height="24" viewBox="0 0 25 24" fill="none" xmlns="http://www.w3.org/2000/svg">
    <g id="icons/edit">
        <path id="Vector"
              d="M6.46685 17.625C6.51372 17.625 6.5606 17.6203 6.60747 17.6133L10.5497 16.9219C10.5965 16.9125 10.6411 16.8914 10.6739 16.8563L20.609 6.92109C20.6308 6.89941 20.648 6.87366 20.6598 6.8453C20.6715 6.81695 20.6776 6.78656 20.6776 6.75586C20.6776 6.72516 20.6715 6.69477 20.6598 6.66642C20.648 6.63806 20.6308 6.61231 20.609 6.59063L16.7137 2.69297C16.6692 2.64844 16.6106 2.625 16.5473 2.625C16.484 2.625 16.4254 2.64844 16.3809 2.69297L6.44575 12.6281C6.4106 12.6633 6.3895 12.7055 6.38013 12.7523L5.68872 16.6945C5.66592 16.8201 5.67407 16.9493 5.71246 17.071C5.75084 17.1927 5.81832 17.3032 5.90903 17.393C6.06372 17.543 6.25825 17.625 6.46685 17.625ZM8.04653 13.5375L16.5473 5.03906L18.2653 6.75703L9.7645 15.2555L7.68091 15.6234L8.04653 13.5375ZM21.052 19.5938H3.802C3.38716 19.5938 3.052 19.9289 3.052 20.3438V21.1875C3.052 21.2906 3.13638 21.375 3.2395 21.375H21.6145C21.7176 21.375 21.802 21.2906 21.802 21.1875V20.3438C21.802 19.9289 21.4668 19.5938 21.052 19.5938Z"
              fill="#0A54A3"/>
    </g>
</svg>
