<svg width="33" height="32" viewBox="0 0 33 32" fill="none" xmlns="http://www.w3.org/2000/svg">
    <g id="icons/error-big">
        <g id="Group 100">
            <path id="Vector 25 (Stroke)" fill-rule="evenodd" clip-rule="evenodd"
                  d="M16.9857 4.00013C17.3388 4.00586 17.6632 4.19929 17.8403 4.5098L30.3643 26.4644C30.5448 26.7807 30.5453 27.171 30.3656 27.4879C30.186 27.8047 29.8535 28 29.4936 28H3.50639C3.14078 28 2.80392 27.7985 2.62648 27.4736C2.44903 27.1488 2.45891 26.7517 2.65228 26.4364L16.1155 4.48181C16.3023 4.17721 16.6326 3.9944 16.9857 4.00013ZM5.31936 25.9546H27.7469L16.9384 7.00727L5.31936 25.9546Z"
                  fill="#D32743"/>
            <g id="Group 99">
                <rect id="Rectangle 14" x="15.522" y="10.2275" width="1.88327" height="9.41636" rx="0.941634"
                      fill="#D32743"/>
                <circle id="Ellipse 8" cx="16.5309" cy="22.4016" r="1.00889" fill="#D32743"/>
            </g>
        </g>
    </g>
</svg>
