<svg width="17" height="16" viewBox="0 0 17 16" fill="none" xmlns="http://www.w3.org/2000/svg">
    <g id="icons/logout">
        <path id="Union" fill-rule="evenodd" clip-rule="evenodd"
              d="M8.07349 14.9255C6.2194 14.9255 4.53549 14.1969 3.29244 13.0104C5.53044 9.60495 10.578 9.65385 12.7473 13.1107C11.5155 14.2378 9.87478 14.9255 8.07349 14.9255ZM13.5015 12.3016C10.893 8.49665 5.23973 8.44162 2.55546 12.1856C1.67221 11.023 1.14798 9.57271 1.14798 8C1.14798 4.17515 4.24863 1.0745 8.07349 1.0745C11.8983 1.0745 14.999 4.17515 14.999 8C14.999 9.62544 14.439 11.1201 13.5015 12.3016ZM8.07349 16C3.65521 16 0.0734844 12.4183 0.0734844 8C0.0734844 3.58172 3.65521 0 8.07349 0C12.4918 0 16.0735 3.58172 16.0735 8C16.0735 12.4183 12.4918 16 8.07349 16ZM5.63624 5.37174C5.63624 6.7178 6.72743 7.80899 8.07349 7.80899C9.41954 7.80899 10.5107 6.7178 10.5107 5.37174C10.5107 4.02569 9.41954 2.9345 8.07349 2.9345C6.72743 2.9345 5.63624 4.02569 5.63624 5.37174ZM4.56174 5.37174C4.56174 7.31122 6.134 8.88349 8.07349 8.88349C10.013 8.88349 11.5852 7.31122 11.5852 5.37174C11.5852 3.43226 10.013 1.86 8.07349 1.86C6.134 1.86 4.56174 3.43226 4.56174 5.37174Z"
              fill="#0A54A3"/>
    </g>
</svg>
