<svg width="25" height="24" viewBox="0 0 25 24" fill="none" xmlns="http://www.w3.org/2000/svg">
    <g id="icons/search">
        <path id="Vector"
              d="M11.1465 18.646C12.9215 18.6456 14.6453 18.0514 16.0435 16.958L20.4395 21.354L21.8535 19.94L17.4575 15.544C18.5515 14.1457 19.1461 12.4214 19.1465 10.646C19.1465 6.235 15.5575 2.646 11.1465 2.646C6.73548 2.646 3.14648 6.235 3.14648 10.646C3.14648 15.057 6.73548 18.646 11.1465 18.646ZM11.1465 4.646C14.4555 4.646 17.1465 7.337 17.1465 10.646C17.1465 13.955 14.4555 16.646 11.1465 16.646C7.83748 16.646 5.14648 13.955 5.14648 10.646C5.14648 7.337 7.83748 4.646 11.1465 4.646Z"
              fill="#B2B2B2"/>
    </g>
</svg>
