<svg width="16" height="16" viewBox="0 0 16 16" fill="none" xmlns="http://www.w3.org/2000/svg">
    <g id="icons/show">
        <g id="Vector">
            <path d="M14.6193 7.25781C14.9582 7.70114 14.9582 8.29963 14.6193 8.74225C13.5517 10.1359 10.9904 13.0054 8.00009 13.0054C5.00975 13.0054 2.44845 10.1359 1.38088 8.74225C1.21598 8.52997 1.12646 8.26883 1.12646 8.00003C1.12646 7.73123 1.21598 7.47008 1.38088 7.25781C2.44845 5.86418 5.00975 2.99469 8.00009 2.99469C10.9904 2.99469 13.5517 5.86418 14.6193 7.25781Z"
                  stroke="#0A54A3" stroke-width="2" stroke-linecap="round" stroke-linejoin="round"/>
            <path d="M8.00009 10.1452C9.18482 10.1452 10.1452 9.18476 10.1452 8.00003C10.1452 6.8153 9.18482 5.85488 8.00009 5.85488C6.81535 5.85488 5.85494 6.8153 5.85494 8.00003C5.85494 9.18476 6.81535 10.1452 8.00009 10.1452Z"
                  stroke="#0A54A3" stroke-width="2" stroke-linecap="round" stroke-linejoin="round"/>
        </g>
    </g>
</svg>
