<svg width="24" height="24" viewBox="0 0 24 24" fill="none" xmlns="http://www.w3.org/2000/svg">
  <g id="icons/action">
    <g id="Vector">
      <path
        d="M21.7133 13.707C21.9008 13.5195 22.0061 13.2652 22.0061 13C22.0061 12.7349 21.9008 12.4806 21.7133 12.293L18.7133 9.29303C18.5258 9.10556 18.2715 9.00024 18.0063 9.00024C17.7411 9.00024 17.4868 9.10556 17.2993 9.29303L14.2993 12.293C14.1171 12.4816 14.0164 12.7342 14.0186 12.9964C14.0209 13.2586 14.1261 13.5094 14.3115 13.6948C14.4969 13.8803 14.7477 13.9854 15.0099 13.9877C15.2721 13.99 15.5247 13.8892 15.7133 13.707L17.0063 12.414V14C17.0063 14.2652 17.1117 14.5196 17.2992 14.7071C17.4867 14.8947 17.7411 15 18.0063 15C18.2715 15 18.5259 14.8947 18.7134 14.7071C18.901 14.5196 19.0063 14.2652 19.0063 14V12.414L20.2993 13.707C20.4868 13.8945 20.7411 13.9998 21.0063 13.9998C21.2715 13.9998 21.5258 13.8945 21.7133 13.707ZM9.71331 10.293C9.90078 10.4806 10.0061 10.7349 10.0061 11C10.0061 11.2652 9.90078 11.5195 9.71331 11.707L6.71331 14.707C6.52578 14.8945 6.27147 14.9998 6.00631 14.9998C5.74114 14.9998 5.48683 14.8945 5.29931 14.707L2.29931 11.707C2.2038 11.6148 2.12761 11.5044 2.07521 11.3824C2.0228 11.2604 1.99521 11.1292 1.99406 10.9964C1.9929 10.8637 2.0182 10.732 2.06849 10.6091C2.11877 10.4862 2.19302 10.3745 2.28691 10.2806C2.3808 10.1867 2.49246 10.1125 2.61535 10.0622C2.73825 10.0119 2.86993 9.98662 3.00271 9.98778C3.13549 9.98893 3.26671 10.0165 3.38871 10.0689C3.51072 10.1213 3.62106 10.1975 3.71331 10.293L5.00631 11.586V10C5.00631 9.73481 5.11166 9.48046 5.2992 9.29292C5.48674 9.10539 5.74109 9.00003 6.00631 9.00003C6.27152 9.00003 6.52588 9.10539 6.71341 9.29292C6.90095 9.48046 7.00631 9.73481 7.00631 10V11.586L8.29931 10.293C8.48683 10.1056 8.74114 10.0002 9.00631 10.0002C9.27147 10.0002 9.52578 10.1056 9.71331 10.293Z"
        fill="#0A54A3"/>
      <path
        d="M18.0063 13C18.2715 13 18.5259 13.1054 18.7134 13.2929C18.9009 13.4805 19.0063 13.7348 19.0063 14C19.0063 15.4176 18.5758 16.8018 17.7719 17.9694C16.968 19.137 15.8286 20.033 14.5043 20.5389C13.18 21.0448 11.7334 21.1367 10.3558 20.8024C8.97816 20.4682 7.73448 19.7235 6.78931 18.667C6.70028 18.5694 6.63148 18.4552 6.58687 18.3308C6.54226 18.2065 6.52272 18.0745 6.5294 17.9426C6.53607 17.8107 6.56882 17.6814 6.62575 17.5622C6.68269 17.4429 6.76267 17.3362 6.86109 17.2481C6.95951 17.16 7.07442 17.0922 7.19917 17.0488C7.32392 17.0053 7.45604 16.987 7.58791 16.9949C7.71977 17.0028 7.84877 17.0368 7.96744 17.0948C8.08611 17.1528 8.19211 17.2338 8.27931 17.333C8.95435 18.0879 9.84269 18.6199 10.8267 18.8588C11.8108 19.0977 12.8442 19.0322 13.7902 18.6709C14.7362 18.3096 15.5502 17.6696 16.1245 16.8355C16.6988 16.0014 17.0063 15.0127 17.0063 14C17.0063 13.7348 17.1117 13.4805 17.2992 13.2929C17.4867 13.1054 17.7411 13 18.0063 13ZM17.1463 6.74503C17.3437 6.56799 17.4628 6.31977 17.4772 6.05497C17.4916 5.79018 17.4003 5.53049 17.2233 5.33303C16.2781 4.27652 15.0345 3.53187 13.6568 3.19762C12.2792 2.86336 10.8326 2.95525 9.50831 3.46113C8.18405 3.96701 7.04459 4.86303 6.24069 6.03065C5.4368 7.19826 5.00635 8.58244 5.00631 10C5.00631 10.2652 5.11166 10.5196 5.2992 10.7071C5.48674 10.8947 5.74109 11 6.00631 11C6.27152 11 6.52588 10.8947 6.71341 10.7071C6.90095 10.5196 7.00631 10.2652 7.00631 10C7.00632 8.98738 7.31382 7.99861 7.8881 7.16455C8.46239 6.3305 9.27639 5.69048 10.2224 5.32918C11.1684 4.96789 12.2018 4.90235 13.1859 5.14124C14.1699 5.38014 15.0583 5.9122 15.7333 6.66703C15.9102 6.8646 16.1584 6.98382 16.4232 6.99845C16.688 7.01307 16.9487 6.92192 17.1463 6.74503Z"
        fill="#0A54A3"/>
    </g>
  </g>
</svg>
