<svg width="41" height="42" viewBox="0 0 41 42" fill="none" xmlns="http://www.w3.org/2000/svg">
  <g id="icons/attachment-big">
    <path id="Vector 23"
          d="M33.6264 14.5926V41H7.37366V4.96102C7.37366 2.77341 9.14707 1 11.3347 1V1C13.5223 1 15.2957 2.77341 15.2957 4.96102V14.5235C15.2957 16.0144 14.087 17.2231 12.5961 17.2231V17.2231C11.1052 17.2231 9.8965 16.0144 9.8965 14.5235V7.16054C9.8965 6.37885 10.5302 5.74517 11.3119 5.74517V5.74517C12.0936 5.74517 12.7273 6.37885 12.7273 7.16054V11.5496M33.6264 14.5926L26.9248 6.67067M33.6264 14.5926H26.9248V6.67067M18.806 6.54663H26.8199L26.9248 6.67067M12.0936 19.7503H29.2424M12.0936 24.4954H29.2424M12.0936 28.8794H29.2424M12.0936 33.4182H29.2424"
          stroke="#0A54A3" stroke-width="1.5"/>
  </g>
</svg>
