<svg width="24" height="24" viewBox="0 0 24 24" fill="none" xmlns="http://www.w3.org/2000/svg">
  <g id="icons/dictionary-editable">
    <g id="Group 102">
      <path id="Vector"
            d="M22.828 14.236C23.1027 13.9614 23.2538 13.5967 23.2538 13.2087C23.2538 12.8207 23.1027 12.456 22.828 12.1814L21.6757 11.0291C21.4011 10.7545 21.0364 10.6033 20.6484 10.6033C20.2604 10.6033 19.8957 10.7545 19.6218 11.0284L11.8972 18.729V21.9366H15.1034L22.828 14.236ZM20.6484 12.0564L21.8014 13.208L20.6462 14.3588L19.4939 13.2073L20.6484 12.0564ZM13.3503 20.4836V19.332L18.4651 14.2331L19.6174 15.3854L14.5033 20.4836H13.3503Z"
            fill="#D11732"/>
      <path id="Union" fill-rule="evenodd" clip-rule="evenodd"
            d="M16.3074 2.06335H4.05859C3.18005 2.06335 2.33765 2.41229 1.71643 3.03351C1.09534 3.65466 0.746338 4.49713 0.746338 5.37555V18.6245C0.746338 19.5029 1.09534 20.3453 1.71643 20.9665C2.33765 21.5877 3.18005 21.9366 4.05859 21.9366H10.8503V19.7285H4.05859C3.76575 19.7285 3.48486 19.6122 3.27783 19.4052C3.0708 19.1981 2.95447 18.9172 2.95447 18.6245C2.95447 18.3316 3.0708 18.0508 3.27783 17.8438C3.48486 17.6367 3.76575 17.5204 4.05859 17.5204H11.3513L13.61 15.3122H4.05859C3.68188 15.3152 3.30847 15.3824 2.95447 15.5109V5.37555C2.95447 5.08276 3.0708 4.80194 3.27783 4.59485C3.48486 4.38782 3.76575 4.27148 4.05859 4.27148H15.2034V13.7544L17.4115 11.5956V3.16742C17.4115 2.87463 17.2952 2.59381 17.0881 2.38672C16.8811 2.17969 16.6002 2.06335 16.3074 2.06335ZM5.07886 6.79572H13.0789V8.79572H5.07886V6.79572ZM5.07886 10.7957H13.0789V12.7957H5.07886V10.7957Z"
            fill="#0A54A3"/>
    </g>
  </g>
</svg>
