<svg width="24" height="24" viewBox="0 0 24 24" fill="none" xmlns="http://www.w3.org/2000/svg">
  <g id="icons/dictionary">
    <path id="Union" fill-rule="evenodd" clip-rule="evenodd"
          d="M6.9797 2.06335H19.2286C19.5214 2.06335 19.8022 2.17968 20.0093 2.38673C20.2163 2.59378 20.3326 2.87461 20.3326 3.16743V20.8326C20.3326 21.1254 20.2163 21.4062 20.0093 21.6133C19.8022 21.8203 19.5214 21.9366 19.2286 21.9366H6.9797C6.10124 21.9366 5.25877 21.5877 4.63761 20.9665C4.01645 20.3454 3.66748 19.5029 3.66748 18.6244V5.37557C3.66748 4.49712 4.01645 3.65464 4.63761 3.03348C5.25877 2.41232 6.10124 2.06335 6.9797 2.06335ZM18.1245 4.2715H6.9797C6.68688 4.2715 6.40605 4.38782 6.199 4.59487C5.99195 4.80193 5.87562 5.08275 5.87562 5.37557V15.5109C6.22967 15.3824 6.60305 15.3152 6.9797 15.3122H18.1245V4.2715ZM6.199 19.4051C6.40605 19.6122 6.68688 19.7285 6.9797 19.7285H18.1245V17.5204H6.9797C6.68688 17.5204 6.40605 17.6367 6.199 17.8437C5.99195 18.0508 5.87562 18.3316 5.87562 18.6244C5.87562 18.9172 5.99195 19.1981 6.199 19.4051ZM8 6.79572H16V8.79572H8V6.79572ZM8 10.7957H16V12.7957H8V10.7957Z"
          fill="#0A54A3"/>
  </g>
</svg>
