<svg width="24" height="24" viewBox="0 0 24 24" fill="none" xmlns="http://www.w3.org/2000/svg">
  <g id="icons/do-wycofania">
    <g id="Vector">
      <path
        d="M2.83203 4H11.832V7H14.832V12H16.832V6L12.832 2H2.83203C2.3016 2 1.79289 2.21071 1.41782 2.58579C1.04274 2.96086 0.832031 3.46957 0.832031 4V20C0.832031 20.5304 1.04274 21.0391 1.41782 21.4142C1.79289 21.7893 2.3016 22 2.83203 22H14.832C15.3625 22 15.8712 21.7893 16.2462 21.4142C16.6213 21.0391 16.832 20.5304 16.832 20V16.5H14.832V20H2.83203V4Z"
        fill="#0A54A3"/>
      <path fill-rule="evenodd" clip-rule="evenodd"
            d="M19.3723 10.2004L23.168 13.9963L19.3723 17.792L17.9581 16.3778L19.3396 14.9963H11.9292V12.9963H19.3396L17.958 11.6146L19.3723 10.2004Z"
            fill="#0A54A3"/>
    </g>
  </g>
</svg>
