<svg width="21" height="16" viewBox="0 0 21 16" fill="none" xmlns="http://www.w3.org/2000/svg">
  <g id="icons/document-message">
    <path id="Subtract" fill-rule="evenodd" clip-rule="evenodd"
          d="M0.349976 2.4C0.349976 1.07452 1.45204 0 2.81151 0H9.37562C12.5477 0 15.1192 2.50721 15.1192 5.6V8H13.4782V5.6H8.5551V1.6H2.81151C2.35836 1.6 1.991 1.95817 1.991 2.4V13.6C1.991 14.0418 2.35836 14.4 2.81151 14.4H9.90955V16H2.81151C1.45204 16 0.349976 14.9255 0.349976 13.6V2.4ZM9.90955 11.2V12.8H3.63203V11.2H9.90955ZM9.90955 8V9.6H3.63203V8H9.90955ZM13.1368 4C12.6095 2.82324 11.5182 1.94168 10.1961 1.68001V4H13.1368ZM3.63203 6.4H6.91408V4.8H3.63203V6.4Z"
          fill="#0A54A3"/>
    <path id="Vector 26"
          d="M11.5 9.50043V15.5004H19.5539V9.50043M11.5 9.50043H19.5539M11.5 9.50043L15.5011 13.196L19.5539 9.50043"
          stroke="#D11732"/>
  </g>
</svg>
