<svg width="17" height="16" viewBox="0 0 17 16" fill="none" xmlns="http://www.w3.org/2000/svg">
  <g id="icons/download">
    <path id="Vector"
          d="M2.92833 14.2222H14.0717C14.3069 14.2223 14.5334 14.3078 14.7053 14.4616C14.8773 14.6153 14.9818 14.8258 14.9978 15.0505C15.0139 15.2752 14.9402 15.4974 14.7917 15.6721C14.6433 15.8468 14.431 15.961 14.198 15.9917L14.0717 16H2.92833C2.69305 15.9999 2.46657 15.9144 2.29465 15.7606C2.12274 15.6069 2.0182 15.3964 2.00216 15.1717C1.98612 14.947 2.05979 14.7249 2.20826 14.5502C2.35674 14.3755 2.56896 14.2612 2.80204 14.2305L2.92833 14.2222ZM8.37371 0.00829626L8.5 0C8.7244 9.05825e-06 8.9412 0.0777988 9.11032 0.218983C9.27944 0.360168 9.38943 0.555196 9.41994 0.768L9.42861 0.888889V10.0006L12.2206 7.32919C12.3781 7.17851 12.5869 7.08701 12.8089 7.07134C13.0309 7.05568 13.2515 7.1169 13.4303 7.24385L13.5343 7.32919C13.6917 7.47991 13.7873 7.67975 13.8037 7.89229C13.82 8.10483 13.7561 8.31593 13.6235 8.48711L13.5343 8.58667L9.15622 12.7763C8.99899 12.9268 8.79054 13.0184 8.56878 13.0342C8.34701 13.0501 8.12666 12.9893 7.94778 12.8628L7.84378 12.7763L3.46569 8.58667C3.29953 8.42806 3.20227 8.21512 3.19346 7.99067C3.18464 7.76621 3.26492 7.54688 3.41816 7.37678C3.57139 7.20668 3.78623 7.09841 4.01946 7.07375C4.25269 7.04909 4.48703 7.10986 4.67536 7.24385L4.77936 7.32919L7.57139 10.003V0.888889C7.5714 0.674089 7.65266 0.466558 7.80016 0.304675C7.94765 0.142792 8.15139 0.0375091 8.37371 0.00829626Z"
          fill="#0A54A3"/>
  </g>
</svg>
