<svg width="16" height="16" viewBox="0 0 16 16" fill="none" xmlns="http://www.w3.org/2000/svg">
  <g id="icons/file-document">
    <g id="file-document">
      <path d="M3.89741 12.8H12.1025V11.2H3.89741V12.8Z" fill="#0A54A3"/>
      <path d="M12.1025 9.6H3.89741V8H12.1025V9.6Z" fill="#0A54A3"/>
      <path d="M3.89741 6.4H7.17946V4.8H3.89741V6.4Z" fill="#0A54A3"/>
      <path fill-rule="evenodd" clip-rule="evenodd"
            d="M3.07689 0C1.71742 0 0.615356 1.07452 0.615356 2.4V13.6C0.615356 14.9255 1.71743 16 3.0769 16H12.923C14.2825 16 15.3846 14.9255 15.3846 13.6V5.6C15.3846 2.50721 12.8131 0 9.641 0H3.07689ZM3.07689 1.6H8.82048V5.6H13.7436V13.6C13.7436 14.0418 13.3762 14.4 12.923 14.4H3.0769C2.62374 14.4 2.25638 14.0418 2.25638 13.6V2.4C2.25638 1.95817 2.62374 1.6 3.07689 1.6ZM10.4615 1.68001C11.7836 1.94168 12.8749 2.82324 13.4022 4H10.4615V1.68001Z"
            fill="#0A54A3"/>
    </g>
  </g>
</svg>
