<svg width="25" height="24" viewBox="0 0 25 24" fill="none" xmlns="http://www.w3.org/2000/svg">
  <g id="icons/filter">
    <path id="Vector" fill-rule="evenodd" clip-rule="evenodd"
          d="M5.98438 3H4.48438V10.5H5.98438V3ZM15.1344 10.5H10.3344L9.73438 9.675V8.175L10.3344 7.5H15.1344L15.7344 8.25V9.75L15.1344 10.5ZM7.63438 15H2.83438L2.23438 14.25V12.75L2.83438 12H7.63438L8.23438 12.75V14.25L7.63438 15ZM13.4844 3H11.9844V6H13.4844V3ZM11.9844 12H13.4844V21H11.9844V12ZM5.98438 16.5H4.48438V21H5.98438V16.5ZM17.8344 16.5H22.6194L23.2194 15.75V14.325L22.6194 13.575H17.8344L17.2344 14.325V15.75L17.8344 16.5ZM20.9844 3H19.4844V12H20.9844V3ZM19.4844 18H20.9844V21H19.4844V18Z"
          fill="#0A54A3"/>
  </g>
</svg>
