<svg width="15" height="14" viewBox="0 0 15 14" fill="none" xmlns="http://www.w3.org/2000/svg">
  <g id="icons/help">
    <g id="Path">
      <path
        d="M7.50023 10.4988C7.88696 10.4988 8.20046 10.1854 8.20046 9.79884C8.20046 9.41224 7.88696 9.09884 7.50023 9.09884C7.1135 9.09884 6.8 9.41224 6.8 9.79884C6.8 10.1854 7.1135 10.4988 7.50023 10.4988Z"
        fill="#0A54A3"/>
      <path
        d="M6.8 8.4H8.2V7.7C8.2 7.70171 8.20331 7.69807 8.2108 7.68981C8.22917 7.66957 8.2727 7.6216 8.35434 7.55683C8.42446 7.50121 8.44621 7.4868 8.62337 7.37448C9.22624 6.9923 9.6 6.32769 9.6 5.6C9.6 4.4402 8.6598 3.5 7.5 3.5C6.3402 3.5 5.4 4.4402 5.4 5.6H6.8C6.8 5.2134 7.1134 4.9 7.5 4.9C7.8866 4.9 8.2 5.2134 8.2 5.6C8.2 5.84312 8.07578 6.06401 7.87377 6.19207C7.64712 6.33576 7.60949 6.36069 7.48424 6.46005C7.06792 6.79033 6.8 7.18389 6.8 7.7V8.4Z"
        fill="#0A54A3"/>
      <path fill-rule="evenodd" clip-rule="evenodd"
            d="M7.5 14C8.70719 14 9.87091 13.6934 10.9016 13.1192L13.8663 13.3663L13.6192 10.4016C14.1934 9.37091 14.5 8.20719 14.5 7C14.5 3.13401 11.366 0 7.5 0C3.63401 0 0.5 3.13401 0.5 7C0.5 10.866 3.63401 14 7.5 14ZM10.3805 11.8035L10.5741 11.6871L12.3337 11.8337L12.1871 10.0741L12.3035 9.88049C12.8221 9.0177 13.1 8.03008 13.1 7C13.1 3.90721 10.5928 1.4 7.5 1.4C4.40721 1.4 1.9 3.90721 1.9 7C1.9 10.0928 4.40721 12.6 7.5 12.6C8.53008 12.6 9.5177 12.3221 10.3805 11.8035Z"
            fill="#0A54A3"/>
    </g>
  </g>
</svg>
