<svg width="25" height="24" viewBox="0 0 25 24" fill="none" xmlns="http://www.w3.org/2000/svg">
  <g id="icons/help">
    <g id="Group 98">
      <path id="Ellipse 7 (Stroke)" fill-rule="evenodd" clip-rule="evenodd"
            d="M12.7269 20.4604C17.3995 20.4604 21.1874 16.6726 21.1874 12C21.1874 7.32742 17.3995 3.53955 12.7269 3.53955C8.05435 3.53955 4.26648 7.32742 4.26648 12C4.26648 16.6726 8.05435 20.4604 12.7269 20.4604ZM12.7269 22.4604C18.5041 22.4604 23.1874 17.7771 23.1874 12C23.1874 6.22285 18.5041 1.53955 12.7269 1.53955C6.94978 1.53955 2.26648 6.22285 2.26648 12C2.26648 17.7771 6.94978 22.4604 12.7269 22.4604Z"
            fill="#0A54A3"/>
      <path id="?"
            d="M11.4755 13.5628V13.0569C11.4755 12.6194 11.5689 12.2389 11.7557 11.9153C11.9426 11.5918 12.2844 11.2477 12.7811 10.8831C13.2596 10.5413 13.5741 10.2633 13.7245 10.0491C13.8794 9.83494 13.9569 9.59568 13.9569 9.33136C13.9569 9.03514 13.8475 8.80955 13.6288 8.6546C13.41 8.49965 13.1047 8.42218 12.7128 8.42218C12.0292 8.42218 11.2499 8.64549 10.3749 9.0921L9.62976 7.59503C10.646 7.02537 11.7238 6.74054 12.8632 6.74054C13.802 6.74054 14.5471 6.96613 15.0985 7.4173C15.6545 7.86847 15.9325 8.47003 15.9325 9.22198C15.9325 9.72329 15.8186 10.1562 15.5907 10.5208C15.3628 10.8854 14.9299 11.2956 14.2919 11.7513C13.8544 12.0748 13.5764 12.3209 13.4579 12.4896C13.344 12.6582 13.287 12.8792 13.287 13.1526V13.5628H11.4755ZM11.2567 15.9007C11.2567 15.5179 11.3593 15.2285 11.5643 15.0325C11.7694 14.8366 12.0679 14.7386 12.4598 14.7386C12.8381 14.7386 13.1298 14.8388 13.3348 15.0394C13.5445 15.2399 13.6493 15.527 13.6493 15.9007C13.6493 16.2607 13.5445 16.5456 13.3348 16.7552C13.1252 16.9603 12.8335 17.0628 12.4598 17.0628C12.077 17.0628 11.7808 16.9625 11.5712 16.762C11.3615 16.5569 11.2567 16.2698 11.2567 15.9007Z"
            fill="#0A54A3"/>
    </g>
  </g>
</svg>
