<svg width="17" height="16" viewBox="0 0 17 16" fill="none" xmlns="http://www.w3.org/2000/svg">
  <g id="icons/input_clear">
    <circle id="Ellipse 2" cx="8.5" cy="8" r="8" fill="#0A54A3" fill-opacity="0.1"/>
    <path id="Union"
          d="M6.78033 5.21967C6.48744 4.92678 6.01256 4.92678 5.71967 5.21967C5.42678 5.51256 5.42678 5.98744 5.71967 6.28033L7.43934 8L5.71967 9.71967C5.42678 10.0126 5.42678 10.4874 5.71967 10.7803C6.01256 11.0732 6.48744 11.0732 6.78033 10.7803L8.5 9.06066L10.2197 10.7803C10.5126 11.0732 10.9874 11.0732 11.2803 10.7803C11.5732 10.4874 11.5732 10.0126 11.2803 9.71967L9.56066 8L11.2803 6.28033C11.5732 5.98744 11.5732 5.51256 11.2803 5.21967C10.9874 4.92678 10.5126 4.92678 10.2197 5.21967L8.5 6.93934L6.78033 5.21967Z"
          fill="#0A54A3"/>
  </g>
</svg>
