<svg width="24" height="24" viewBox="0 0 24 24" fill="none" xmlns="http://www.w3.org/2000/svg">
  <g id="icons/manual">
    <g id="Vector">
      <path
        d="M15 4H6V20H18V7H15V4ZM6 2H16L20 6V20C20 20.5304 19.7893 21.0391 19.4142 21.4142C19.0391 21.7893 18.5304 22 18 22H6C5.46957 22 4.96086 21.7893 4.58579 21.4142C4.21071 21.0391 4 20.5304 4 20V4C4 3.46957 4.21071 2.96086 4.58579 2.58579C4.96086 2.21071 5.46957 2 6 2Z"
        fill="#0A54A3"/>
      <path
        d="M10.5845 13.7285V13.2666C10.5845 12.9157 10.6561 12.6203 10.7993 12.3804C10.9425 12.1369 11.1968 11.9006 11.562 11.6714C11.8521 11.4888 12.0597 11.3241 12.1851 11.1772C12.314 11.0304 12.3784 10.8621 12.3784 10.6724C12.3784 10.522 12.3104 10.4038 12.1743 10.3179C12.0382 10.2284 11.861 10.1836 11.6426 10.1836C11.1019 10.1836 10.4699 10.3752 9.74658 10.7583L9 9.29736C9.8916 8.7889 10.8226 8.53467 11.793 8.53467C12.5915 8.53467 13.2181 8.71012 13.6729 9.06104C14.1276 9.41195 14.355 9.88997 14.355 10.4951C14.355 10.9284 14.2529 11.3044 14.0488 11.623C13.8483 11.9382 13.526 12.2371 13.082 12.52C12.7061 12.7635 12.4697 12.9425 12.373 13.0571C12.2799 13.1681 12.2334 13.3006 12.2334 13.4546V13.7285H10.5845ZM10.3535 15.6084C10.3535 15.279 10.4484 15.0247 10.6382 14.8457C10.8315 14.6667 11.1144 14.5771 11.4868 14.5771C11.8449 14.5771 12.1188 14.6685 12.3086 14.8511C12.502 15.0301 12.5986 15.2826 12.5986 15.6084C12.5986 15.9342 12.4984 16.1867 12.2979 16.3657C12.1009 16.5448 11.8306 16.6343 11.4868 16.6343C11.1323 16.6343 10.8548 16.5465 10.6543 16.3711C10.4538 16.1921 10.3535 15.9378 10.3535 15.6084Z"
        fill="#0A54A3"/>
    </g>
  </g>
</svg>
