<svg width="16" height="16" viewBox="0 0 16 16" fill="none" xmlns="http://www.w3.org/2000/svg">
  <g id="icons/person">
    <path id="Vector"
          d="M8 0.083374C5.7025 0.083374 3.83333 1.95254 3.83333 4.25004C3.83333 6.54754 5.7025 8.41671 8 8.41671C10.2975 8.41671 12.1667 6.54754 12.1667 4.25004C12.1667 1.95254 10.2975 0.083374 8 0.083374ZM8 6.75004C6.62167 6.75004 5.5 5.62837 5.5 4.25004C5.5 2.87171 6.62167 1.75004 8 1.75004C9.37833 1.75004 10.5 2.87171 10.5 4.25004C10.5 5.62837 9.37833 6.75004 8 6.75004ZM15.5 15.9167V15.0834C15.5 11.8675 12.8825 9.25004 9.66667 9.25004H6.33333C3.11667 9.25004 0.5 11.8675 0.5 15.0834V15.9167H2.16667V15.0834C2.16667 12.7859 4.03583 10.9167 6.33333 10.9167H9.66667C11.9642 10.9167 13.8333 12.7859 13.8333 15.0834V15.9167H15.5Z"
          fill="#0A54A3"/>
  </g>
</svg>
