<svg width="17" height="16" viewBox="0 0 17 16" fill="none" xmlns="http://www.w3.org/2000/svg">
  <g id="icons/print">
    <path id="Vector"
          d="M14.388 3.83333H13.3V2.16667C13.3174 1.74361 13.173 1.33062 12.8986 1.01822C12.6242 0.705814 12.2421 0.519462 11.836 0.5H5.16401C4.75793 0.519462 4.37581 0.705814 4.1014 1.01822C3.82698 1.33062 3.68264 1.74361 3.70001 2.16667V3.83333H2.61201C2.04902 3.83774 1.51065 4.07437 1.1148 4.4914C0.718948 4.90843 0.497883 5.47187 0.500015 6.05833V11.6083C0.497883 12.1948 0.718948 12.7582 1.1148 13.1753C1.51065 13.5923 2.04902 13.8289 2.61201 13.8333H3.30001C3.30001 14.2754 3.46858 14.6993 3.76864 15.0118C4.0687 15.3244 4.47566 15.5 4.90001 15.5H12.1C12.5243 15.5 12.9313 15.3244 13.2314 15.0118C13.5314 14.6993 13.7 14.2754 13.7 13.8333H14.388C14.951 13.8289 15.4894 13.5923 15.8852 13.1753C16.2811 12.7582 16.5021 12.1948 16.5 11.6083V6.05833C16.5021 5.47187 16.2811 4.90843 15.8852 4.4914C15.4894 4.07437 14.951 3.83774 14.388 3.83333ZM5.30001 2.16667H11.7V3.83333H5.30001V2.16667ZM4.90001 13.8333V10.5H12.1V13.8333H4.90001ZM14.9 11.6083C14.9022 11.7528 14.8497 11.8923 14.7539 11.9968C14.658 12.1013 14.5266 12.1623 14.388 12.1667H13.7V10.5C13.7 10.058 13.5314 9.63405 13.2314 9.32149C12.9313 9.00893 12.5243 8.83333 12.1 8.83333H4.90001C4.47566 8.83333 4.0687 9.00893 3.76864 9.32149C3.46858 9.63405 3.30001 10.058 3.30001 10.5V12.1667H2.61201C2.47337 12.1623 2.34195 12.1013 2.24615 11.9968C2.15034 11.8923 2.09785 11.7528 2.10001 11.6083V6.05833C2.09785 5.91387 2.15034 5.77432 2.24615 5.66985C2.34195 5.56537 2.47337 5.50436 2.61201 5.5H14.388C14.5266 5.50436 14.658 5.56537 14.7539 5.66985C14.8497 5.77432 14.9022 5.91387 14.9 6.05833V11.6083Z"
          fill="#0A54A3"/>
  </g>
</svg>
