<svg width="25" height="24" viewBox="0 0 25 24" fill="none" xmlns="http://www.w3.org/2000/svg">
  <g id="icons/save">
    <path id="Vector"
          d="M18.427 19H19.427V6.828L17.599 5H16.427V9H7.427V5H5.427V19H6.427V12H18.427V19ZM4.427 3H18.427L21.134 5.707C21.3216 5.89449 21.4269 6.14881 21.427 6.414V20C21.427 20.2652 21.3216 20.5196 21.1341 20.7071C20.9466 20.8946 20.6922 21 20.427 21H4.427C4.16179 21 3.90743 20.8946 3.7199 20.7071C3.53236 20.5196 3.427 20.2652 3.427 20V4C3.427 3.73478 3.53236 3.48043 3.7199 3.29289C3.90743 3.10536 4.16179 3 4.427 3ZM8.427 14V19H16.427V14H8.427Z"
          fill="#0A54A3"/>
  </g>
</svg>
