<svg width="15" height="14" viewBox="0 0 15 14" fill="none" xmlns="http://www.w3.org/2000/svg">
  <g id="icons/settings">
    <g id="icons/settings_2">
      <path fill-rule="evenodd" clip-rule="evenodd"
            d="M7.5 9.54545C6.09418 9.54545 4.95455 8.40582 4.95455 7C4.95455 5.59418 6.09418 4.45455 7.5 4.45455C8.90582 4.45455 10.0455 5.59418 10.0455 7C10.0455 8.40582 8.90582 9.54545 7.5 9.54545ZM8.77273 7C8.77273 7.70291 8.20291 8.27273 7.5 8.27273C6.79709 8.27273 6.22727 7.70291 6.22727 7C6.22727 6.29709 6.79709 5.72727 7.5 5.72727C8.20291 5.72727 8.77273 6.29709 8.77273 7Z"
            fill="#0A54A3"/>
      <path fill-rule="evenodd" clip-rule="evenodd"
            d="M11.7357 12.6617L13.1467 11.2508L12.6498 9.44554L12.8662 8.92849L14.5 8.00662V6.01138L12.8709 5.08565L12.658 4.56952L13.1612 2.76332L11.7493 1.35344L9.94382 1.85021L9.42794 1.63391L8.50597 0H6.51073L5.585 1.62912L5.06899 1.84193L3.26308 1.33815L1.85336 2.74787L2.35021 4.55361L2.13391 5.06949L0.5 5.99145V7.98612L2.12765 8.91391L2.34069 9.43048L1.83762 11.2364L3.24787 12.6466L5.05361 12.1498L5.56955 12.3661L6.49153 13.9994H8.48626L9.41338 12.3717L9.92984 12.1587L11.7357 12.6617ZM11.8608 8.03448L11.306 9.35948L11.723 10.8745L11.3613 11.2362L9.84948 10.8151L8.52388 11.3618L7.74649 12.7266H7.23458L6.46362 11.3609L5.14008 10.806L3.62421 11.2231L3.26311 10.862L3.68427 9.35012L3.13761 8.02463L1.77273 7.24663V6.73466L3.13906 5.96368L3.69403 4.64008L3.27693 3.12421L3.63728 2.76386L5.14912 3.1856L6.47517 2.63872L7.25137 1.27273H7.76277L8.53375 2.63906L9.85735 3.19403L11.3735 2.77685L11.7355 3.13833L11.3144 4.64988L11.8613 5.97581L13.2273 6.75202V7.26341L11.8608 8.03448Z"
            fill="#0A54A3"/>
    </g>
  </g>
</svg>
